<svg width="110" height="111" viewBox="0 0 110 111" fill="none" xmlns="http://www.w3.org/2000/svg">
<path d="M1.62024 93.433C1.70124 93.289 5.01227 87.539 8.97827 80.655C20.2953 61.012 25.5783 51.921 25.8213 51.665C25.9453 51.535 27.5073 53.984 29.2913 57.106L32.5353 62.784L23.6482 78.147L14.7603 93.51L8.11621 93.6021C5.94859 93.7251 3.7745 93.6686 1.61621 93.433H1.62024ZM34.0773 93.256C33.8903 93.024 32.3553 90.4361 30.6653 87.5051L27.5933 82.178H42.3333C55.8333 82.178 57.0552 82.131 56.8602 81.625C56.7442 81.325 51.2983 71.7821 44.7603 60.425C38.2223 49.068 32.8752 39.615 32.8802 39.412C32.8852 39.209 36.2342 33.259 40.3202 26.189C44.4062 19.119 49.3362 10.559 51.2762 7.16705C53.2162 3.77505 54.8762 0.999047 54.9762 0.998047C55.1282 0.998047 76.3863 37.736 77.0833 39.204C77.3273 39.717 72.0613 49.621 70.9313 50.775C70.8083 50.901 67.2053 44.926 62.9263 37.498C58.6473 30.07 55.0652 23.991 54.9662 23.991C54.6662 23.991 46.0053 39.312 46.1123 39.659C46.2193 40.006 46.6812 40.807 65.4122 73.291C71.7662 84.313 76.9662 93.409 76.9662 93.504C76.9662 93.925 34.4252 93.677 34.0842 93.2551L34.0773 93.256ZM95.1183 93.425C92.2683 88.5581 78.1273 63.874 77.8893 63.352C77.6053 62.729 77.9892 61.852 80.3412 57.764C84.3782 50.743 84.0792 51.164 84.4922 51.933C84.7332 52.384 104.215 86.317 108.313 93.425C106.174 93.6847 104.017 93.7697 101.863 93.679C99.6118 93.756 97.3576 93.6711 95.1183 93.425Z" fill="#F0F5FA"/>
<path d="M7.99497 105.186C8.03166 105.287 8.05 105.37 8.05 105.434C8.05459 105.494 8.03854 105.539 8.00185 105.572C7.96515 105.604 7.90323 105.624 7.81609 105.633C7.73353 105.643 7.62116 105.647 7.47897 105.647C7.33679 105.647 7.22213 105.643 7.13498 105.633C7.05242 105.629 6.98821 105.62 6.94234 105.606C6.90106 105.588 6.86896 105.565 6.84603 105.537C6.82768 105.51 6.80933 105.475 6.79099 105.434L6.02732 103.267H2.32594L1.59667 105.406C1.58292 105.448 1.56457 105.484 1.54164 105.517C1.5187 105.544 1.4843 105.569 1.43844 105.592C1.39716 105.611 1.33524 105.624 1.25268 105.633C1.17471 105.643 1.07151 105.647 0.943086 105.647C0.810075 105.647 0.699997 105.64 0.612852 105.627C0.530293 105.617 0.470667 105.597 0.433975 105.565C0.401868 105.533 0.385815 105.487 0.385815 105.427C0.390402 105.363 0.411042 105.28 0.447734 105.179L3.4336 96.9098C3.45195 96.8593 3.47488 96.8181 3.5024 96.7859C3.53451 96.7538 3.57808 96.7286 3.63312 96.7103C3.69275 96.6919 3.76613 96.6805 3.85328 96.6759C3.94501 96.6667 4.05967 96.6621 4.19727 96.6621C4.34404 96.6621 4.46559 96.6667 4.5619 96.6759C4.65822 96.6805 4.73619 96.6919 4.79582 96.7103C4.85545 96.7286 4.90131 96.7561 4.93342 96.7928C4.96552 96.8249 4.99075 96.8662 5.0091 96.9167L7.99497 105.186ZM4.16287 97.8867H4.15599L2.62178 102.324H5.71772L4.16287 97.8867ZM12.4669 105.4C12.4485 105.45 12.4233 105.491 12.3912 105.523C12.3591 105.556 12.3132 105.581 12.2536 105.599C12.1986 105.617 12.1252 105.629 12.0335 105.633C11.9463 105.643 11.8362 105.647 11.7032 105.647C11.6023 105.647 11.5129 105.645 11.4349 105.64C11.3615 105.64 11.2973 105.636 11.2423 105.627C11.1872 105.617 11.1391 105.608 11.0978 105.599C11.0611 105.585 11.029 105.569 11.0015 105.551C10.974 105.533 10.951 105.512 10.9327 105.489C10.9189 105.461 10.9052 105.429 10.8914 105.393L7.98121 97.1231C7.94451 97.0222 7.92387 96.9419 7.91929 96.8823C7.91929 96.8181 7.93993 96.7699 7.98121 96.7378C8.02249 96.7057 8.08899 96.685 8.18072 96.6759C8.27245 96.6667 8.39629 96.6621 8.55224 96.6621C8.68066 96.6621 8.78157 96.6667 8.85495 96.6759C8.93292 96.6805 8.99255 96.6919 9.03383 96.7103C9.07511 96.7286 9.10492 96.7538 9.12327 96.7859C9.1462 96.8135 9.16684 96.8502 9.18519 96.896L11.7376 104.388H11.7445L14.2281 96.9098C14.2419 96.8593 14.258 96.8181 14.2763 96.7859C14.2946 96.7538 14.3268 96.7286 14.3726 96.7103C14.4185 96.6919 14.4827 96.6805 14.5653 96.6759C14.6478 96.6667 14.7579 96.6621 14.8955 96.6621C15.0377 96.6621 15.15 96.669 15.2326 96.6827C15.3152 96.6919 15.3702 96.7126 15.3977 96.7447C15.4298 96.7768 15.4413 96.8249 15.4321 96.8891C15.4275 96.9488 15.4069 97.029 15.3702 97.1299L12.4669 105.4ZM22.8005 105.427C22.8005 105.464 22.7936 105.496 22.7798 105.523C22.7661 105.551 22.7363 105.574 22.6904 105.592C22.6445 105.611 22.5803 105.624 22.4978 105.633C22.4152 105.643 22.3051 105.647 22.1675 105.647C22.0483 105.647 21.9497 105.643 21.8717 105.633C21.7983 105.624 21.7387 105.611 21.6928 105.592C21.6469 105.569 21.6103 105.539 21.5827 105.503C21.5598 105.466 21.5392 105.42 21.5208 105.365L20.7021 103.267C20.6058 103.028 20.5049 102.81 20.3994 102.613C20.2985 102.411 20.1769 102.239 20.0348 102.097C19.8926 101.95 19.7252 101.838 19.5325 101.76C19.3399 101.678 19.1083 101.636 18.8377 101.636H18.0465V105.427C18.0465 105.464 18.035 105.496 18.0121 105.523C17.9937 105.551 17.9616 105.574 17.9158 105.592C17.8745 105.606 17.8149 105.617 17.7369 105.627C17.6635 105.64 17.5695 105.647 17.4548 105.647C17.3401 105.647 17.2438 105.64 17.1658 105.627C17.0925 105.617 17.0328 105.606 16.987 105.592C16.9411 105.574 16.909 105.551 16.8907 105.523C16.8723 105.496 16.8631 105.464 16.8631 105.427V97.185C16.8631 97.0061 16.909 96.8823 17.0007 96.8135C17.0971 96.7401 17.198 96.7034 17.3034 96.7034H19.1954C19.4202 96.7034 19.6059 96.7103 19.7527 96.724C19.904 96.7332 20.0393 96.7447 20.1586 96.7584C20.5026 96.8181 20.8053 96.9121 21.0667 97.0405C21.3328 97.1689 21.5552 97.3318 21.7341 97.529C21.913 97.7262 22.046 97.9532 22.1331 98.2101C22.2249 98.4623 22.2707 98.7421 22.2707 99.0494C22.2707 99.3476 22.2294 99.6159 22.1469 99.8544C22.0689 100.088 21.9542 100.297 21.8029 100.48C21.6515 100.659 21.4704 100.815 21.2594 100.948C21.0484 101.081 20.8122 101.194 20.5508 101.285C20.6975 101.35 20.8305 101.432 20.9498 101.533C21.069 101.629 21.1791 101.746 21.28 101.884C21.3855 102.022 21.4841 102.18 21.5759 102.359C21.6676 102.538 21.7593 102.739 21.8511 102.964L22.6491 104.925C22.7133 105.09 22.7546 105.207 22.773 105.276C22.7913 105.34 22.8005 105.39 22.8005 105.427ZM21.0186 99.1733C21.0186 98.8247 20.9406 98.5311 20.7847 98.2926C20.6287 98.0496 20.3673 97.8753 20.0004 97.7698C19.8857 97.7377 19.755 97.7147 19.6082 97.701C19.466 97.6872 19.278 97.6803 19.0441 97.6803H18.0465V100.68H19.2023C19.5142 100.68 19.7825 100.643 20.0072 100.57C20.2366 100.492 20.4269 100.386 20.5783 100.253C20.7296 100.116 20.8397 99.9553 20.9085 99.7718C20.9819 99.5884 21.0186 99.3888 21.0186 99.1733ZM31.8338 101.051C31.8338 101.772 31.7489 102.421 31.5792 102.998C31.4095 103.576 31.1549 104.069 30.8155 104.478C30.4807 104.881 30.0588 105.193 29.5496 105.413C29.0405 105.629 28.4466 105.737 27.7677 105.737C27.0981 105.737 26.5179 105.638 26.0271 105.441C25.541 105.239 25.1373 104.948 24.8163 104.567C24.4998 104.186 24.2636 103.714 24.1077 103.15C23.9517 102.586 23.8737 101.937 23.8737 101.203C23.8737 100.501 23.9586 99.8635 24.1283 99.2902C24.298 98.7169 24.5526 98.2307 24.892 97.8317C25.2314 97.4281 25.6556 97.1185 26.1647 96.9029C26.6738 96.6827 27.2678 96.5727 27.9466 96.5727C28.6025 96.5727 29.1735 96.6713 29.6597 96.8685C30.1459 97.0657 30.5495 97.3547 30.8706 97.7354C31.1962 98.1115 31.437 98.5793 31.593 99.1389C31.7535 99.6938 31.8338 100.331 31.8338 101.051ZM30.5885 101.134C30.5885 100.63 30.5426 100.162 30.4509 99.7305C30.3638 99.2948 30.2147 98.9187 30.0037 98.6022C29.7973 98.2812 29.5198 98.0312 29.1712 97.8523C28.8227 97.6735 28.3915 97.584 27.8778 97.584C27.3641 97.584 26.933 97.6803 26.5844 97.873C26.2358 98.0656 25.9515 98.3225 25.7313 98.6435C25.5157 98.9646 25.3598 99.3407 25.2635 99.7718C25.1717 100.198 25.1259 100.648 25.1259 101.12C25.1259 101.643 25.1694 102.125 25.2566 102.565C25.3437 103.005 25.4905 103.386 25.6969 103.707C25.9033 104.024 26.1785 104.271 26.5225 104.45C26.8711 104.624 27.3068 104.712 27.8297 104.712C28.348 104.712 28.7837 104.615 29.1368 104.423C29.49 104.23 29.7744 103.971 29.99 103.645C30.2055 103.315 30.3592 102.934 30.4509 102.503C30.5426 102.072 30.5885 101.616 30.5885 101.134ZM38.9338 105.179C38.9934 105.28 39.0278 105.361 39.037 105.42C39.0508 105.48 39.037 105.528 38.9957 105.565C38.9544 105.597 38.8856 105.617 38.7893 105.627C38.6976 105.64 38.5738 105.647 38.4178 105.647C38.271 105.647 38.1564 105.643 38.0738 105.633C37.9913 105.629 37.9248 105.617 37.8743 105.599C37.8284 105.581 37.7917 105.56 37.7642 105.537C37.7413 105.51 37.7206 105.475 37.7023 105.434L35.7209 101.891L33.7188 105.434C33.6959 105.475 33.6707 105.51 33.6432 105.537C33.6157 105.565 33.5767 105.588 33.5262 105.606C33.4803 105.62 33.4161 105.629 33.3336 105.633C33.251 105.643 33.1409 105.647 33.0033 105.647C32.852 105.647 32.7327 105.64 32.6456 105.627C32.5584 105.617 32.4965 105.597 32.4598 105.565C32.4277 105.528 32.4163 105.48 32.4254 105.42C32.4392 105.361 32.4759 105.28 32.5355 105.179L34.9641 101.086L32.6456 97.1299C32.5905 97.029 32.5539 96.9488 32.5355 96.8891C32.5217 96.8249 32.5332 96.7768 32.5699 96.7447C32.6066 96.708 32.6708 96.685 32.7625 96.6759C32.8543 96.6667 32.9804 96.6621 33.1409 96.6621C33.2785 96.6621 33.3909 96.6667 33.4781 96.6759C33.5652 96.6805 33.634 96.6919 33.6844 96.7103C33.7349 96.724 33.7716 96.747 33.7945 96.7791C33.8175 96.8066 33.8427 96.8387 33.8702 96.8754L35.7828 100.205L37.6817 96.8754C37.7046 96.8387 37.7275 96.8066 37.7505 96.7791C37.7734 96.747 37.8055 96.724 37.8468 96.7103C37.8926 96.6919 37.9546 96.6805 38.0325 96.6759C38.1105 96.6667 38.216 96.6621 38.349 96.6621C38.4912 96.6621 38.6059 96.669 38.693 96.6827C38.7847 96.6919 38.8489 96.7126 38.8856 96.7447C38.9269 96.7768 38.943 96.8249 38.9338 96.8891C38.9246 96.9488 38.8925 97.029 38.8375 97.1299L36.5258 101.058L38.9338 105.179ZM48.5588 103.109C48.5588 103.526 48.4808 103.897 48.3248 104.223C48.1735 104.549 47.9602 104.826 47.685 105.056C47.4144 105.28 47.0933 105.45 46.7218 105.565C46.3549 105.679 45.9582 105.737 45.5316 105.737C45.2335 105.737 44.956 105.711 44.6991 105.661C44.4469 105.611 44.2198 105.549 44.018 105.475C43.8208 105.402 43.6534 105.326 43.5158 105.248C43.3828 105.17 43.2888 105.104 43.2337 105.049C43.1833 104.994 43.1443 104.925 43.1168 104.842C43.0938 104.755 43.0824 104.64 43.0824 104.498C43.0824 104.397 43.087 104.315 43.0961 104.251C43.1053 104.182 43.1191 104.127 43.1374 104.086C43.1558 104.044 43.1787 104.017 43.2062 104.003C43.2337 103.985 43.2658 103.975 43.3025 103.975C43.3667 103.975 43.4562 104.014 43.5708 104.092C43.6901 104.17 43.8414 104.255 44.0249 104.347C44.2084 104.439 44.4285 104.526 44.6854 104.608C44.9468 104.686 45.2472 104.725 45.5866 104.725C45.8435 104.725 46.0774 104.691 46.2884 104.622C46.504 104.553 46.6874 104.457 46.8388 104.333C46.9947 104.205 47.114 104.049 47.1965 103.865C47.2791 103.682 47.3204 103.473 47.3204 103.239C47.3204 102.987 47.263 102.771 47.1484 102.593C47.0337 102.414 46.8824 102.258 46.6943 102.125C46.5063 101.987 46.2907 101.863 46.0476 101.753C45.8091 101.639 45.5637 101.524 45.3114 101.409C45.0592 101.29 44.8138 101.159 44.5753 101.017C44.3368 100.875 44.1235 100.707 43.9355 100.515C43.7474 100.322 43.5938 100.097 43.4745 99.8406C43.3599 99.5792 43.3025 99.2673 43.3025 98.905C43.3025 98.5334 43.369 98.2032 43.502 97.9142C43.6396 97.6207 43.8277 97.3753 44.0662 97.1781C44.3093 96.9809 44.5959 96.8318 44.9262 96.7309C45.261 96.6254 45.621 96.5727 46.0063 96.5727C46.2035 96.5727 46.4008 96.591 46.598 96.6277C46.7998 96.6598 46.9878 96.7057 47.1621 96.7653C47.341 96.8203 47.4993 96.8846 47.6368 96.9579C47.7744 97.0267 47.8639 97.0841 47.9052 97.1299C47.951 97.1712 47.9808 97.2056 47.9946 97.2331C48.0084 97.2561 48.0198 97.2882 48.029 97.3295C48.0382 97.3662 48.0451 97.412 48.0496 97.4671C48.0542 97.5221 48.0565 97.5932 48.0565 97.6803C48.0565 97.7629 48.0519 97.8363 48.0428 97.9005C48.0382 97.9647 48.029 98.0197 48.0152 98.0656C48.0015 98.1069 47.9808 98.139 47.9533 98.1619C47.9304 98.1803 47.9029 98.1894 47.8708 98.1894C47.8203 98.1894 47.74 98.1573 47.63 98.0931C47.5245 98.0289 47.3938 97.9578 47.2378 97.8798C47.0819 97.7973 46.8961 97.7239 46.6805 97.6597C46.4696 97.5909 46.2311 97.5565 45.965 97.5565C45.7174 97.5565 45.5018 97.5909 45.3183 97.6597C45.1349 97.7239 44.9835 97.811 44.8643 97.9211C44.745 98.0312 44.6556 98.1619 44.5959 98.3133C44.5363 98.4646 44.5065 98.6252 44.5065 98.7949C44.5065 99.0425 44.5638 99.2558 44.6785 99.4347C44.7932 99.6136 44.9445 99.7718 45.1326 99.9094C45.3252 100.047 45.5431 100.173 45.7862 100.288C46.0292 100.402 46.2769 100.519 46.5292 100.639C46.7815 100.753 47.0291 100.882 47.2722 101.024C47.5153 101.162 47.7309 101.327 47.9189 101.519C48.1116 101.707 48.2652 101.932 48.3799 102.194C48.4991 102.45 48.5588 102.755 48.5588 103.109ZM57.7159 101.051C57.7159 101.772 57.631 102.421 57.4613 102.998C57.2916 103.576 57.0371 104.069 56.6977 104.478C56.3628 104.881 55.9409 105.193 55.4318 105.413C54.9226 105.629 54.3287 105.737 53.6499 105.737C52.9802 105.737 52.4 105.638 51.9093 105.441C51.4231 105.239 51.0195 104.948 50.6984 104.567C50.3819 104.186 50.1457 103.714 49.9898 103.15C49.8338 102.586 49.7559 101.937 49.7559 101.203C49.7559 100.501 49.8407 99.8635 50.0104 99.2902C50.1801 98.7169 50.4347 98.2307 50.7741 97.8317C51.1135 97.4281 51.5377 97.1185 52.0469 96.9029C52.556 96.6827 53.1499 96.5727 53.8287 96.5727C54.4846 96.5727 55.0557 96.6713 55.5418 96.8685C56.028 97.0657 56.4316 97.3547 56.7527 97.7354C57.0783 98.1115 57.3191 98.5793 57.4751 99.1389C57.6356 99.6938 57.7159 100.331 57.7159 101.051ZM56.4706 101.134C56.4706 100.63 56.4248 100.162 56.333 99.7305C56.2459 99.2948 56.0968 98.9187 55.8858 98.6022C55.6794 98.2812 55.4019 98.0312 55.0534 97.8523C54.7048 97.6735 54.2736 97.584 53.7599 97.584C53.2462 97.584 52.8151 97.6803 52.4665 97.873C52.1179 98.0656 51.8336 98.3225 51.6134 98.6435C51.3979 98.9646 51.2419 99.3407 51.1456 99.7718C51.0539 100.198 51.008 100.648 51.008 101.12C51.008 101.643 51.0516 102.125 51.1387 102.565C51.2259 103.005 51.3726 103.386 51.579 103.707C51.7854 104.024 52.0606 104.271 52.4046 104.45C52.7532 104.624 53.1889 104.712 53.7118 104.712C54.2301 104.712 54.6658 104.615 55.019 104.423C55.3721 104.23 55.6565 103.971 55.8721 103.645C56.0876 103.315 56.2413 102.934 56.333 102.503C56.4248 102.072 56.4706 101.616 56.4706 101.134ZM64.2036 105.09C64.2036 105.182 64.199 105.26 64.1899 105.324C64.1807 105.384 64.1646 105.436 64.1417 105.482C64.1233 105.523 64.0981 105.556 64.066 105.578C64.0385 105.597 64.0041 105.606 63.9628 105.606H60.0275C59.922 105.606 59.8211 105.572 59.7248 105.503C59.6331 105.429 59.5872 105.303 59.5872 105.124V96.8823C59.5872 96.8456 59.5964 96.8135 59.6147 96.7859C59.6331 96.7584 59.6652 96.7378 59.711 96.724C59.7569 96.7057 59.8188 96.6919 59.8968 96.6827C59.9748 96.669 60.0688 96.6621 60.1789 96.6621C60.2935 96.6621 60.3876 96.669 60.461 96.6827C60.5389 96.6919 60.6008 96.7057 60.6467 96.724C60.6926 96.7378 60.7247 96.7584 60.743 96.7859C60.7614 96.8135 60.7705 96.8456 60.7705 96.8823V104.581H63.9628C64.0041 104.581 64.0385 104.592 64.066 104.615C64.0981 104.634 64.1233 104.663 64.1417 104.705C64.1646 104.741 64.1807 104.792 64.1899 104.856C64.199 104.92 64.2036 104.998 64.2036 105.09ZM71.9091 102.317C71.9091 102.859 71.8288 103.342 71.6683 103.769C71.5123 104.191 71.2876 104.549 70.9941 104.842C70.7005 105.136 70.3428 105.358 69.9208 105.51C69.4988 105.661 69.0195 105.737 68.4829 105.737C67.9921 105.737 67.5449 105.666 67.1413 105.523C66.7377 105.381 66.3914 105.173 66.1025 104.897C65.8135 104.618 65.5911 104.269 65.4351 103.852C65.2792 103.434 65.2012 102.953 65.2012 102.407V96.8823C65.2012 96.8456 65.2104 96.8135 65.2287 96.7859C65.2471 96.7584 65.2792 96.7378 65.325 96.724C65.3709 96.7057 65.4305 96.6919 65.5039 96.6827C65.5773 96.669 65.6736 96.6621 65.7929 96.6621C65.9029 96.6621 65.997 96.669 66.0749 96.6827C66.1529 96.6919 66.2125 96.7057 66.2538 96.724C66.2997 96.7378 66.3318 96.7584 66.3501 96.7859C66.3685 96.8135 66.3777 96.8456 66.3777 96.8823V102.262C66.3777 102.675 66.4281 103.035 66.529 103.342C66.6299 103.65 66.7744 103.907 66.9624 104.113C67.1551 104.315 67.3844 104.468 67.6504 104.574C67.921 104.675 68.2238 104.725 68.5586 104.725C68.9026 104.725 69.2076 104.675 69.4736 104.574C69.7442 104.473 69.9712 104.322 70.1547 104.12C70.3428 103.918 70.4849 103.668 70.5813 103.37C70.6822 103.072 70.7326 102.723 70.7326 102.324V96.8823C70.7326 96.8456 70.7418 96.8135 70.7601 96.7859C70.7785 96.7584 70.8106 96.7378 70.8565 96.724C70.9023 96.7057 70.9619 96.6919 71.0353 96.6827C71.1133 96.669 71.2096 96.6621 71.3243 96.6621C71.4344 96.6621 71.5261 96.669 71.5995 96.6827C71.6775 96.6919 71.7371 96.7057 71.7784 96.724C71.8242 96.7378 71.8563 96.7584 71.8747 96.7859C71.8976 96.8135 71.9091 96.8456 71.9091 96.8823V102.317ZM79.8347 97.2125C79.8347 97.2996 79.8301 97.3753 79.8209 97.4395C79.8118 97.5037 79.7957 97.5565 79.7728 97.5978C79.7544 97.6345 79.7292 97.662 79.6971 97.6803C79.6696 97.6987 79.6375 97.7079 79.6008 97.7079H77.0965V105.427C77.0965 105.464 77.0873 105.496 77.069 105.523C77.0506 105.551 77.0185 105.574 76.9727 105.592C76.9268 105.606 76.8649 105.617 76.7869 105.627C76.7135 105.64 76.6195 105.647 76.5048 105.647C76.3948 105.647 76.3007 105.64 76.2228 105.627C76.1448 105.617 76.0829 105.606 76.037 105.592C75.9911 105.574 75.959 105.551 75.9407 105.523C75.9223 105.496 75.9132 105.464 75.9132 105.427V97.7079H73.4089C73.3722 97.7079 73.3378 97.6987 73.3057 97.6803C73.2782 97.662 73.2552 97.6345 73.2369 97.5978C73.2185 97.5565 73.2025 97.5037 73.1887 97.4395C73.1796 97.3753 73.175 97.2996 73.175 97.2125C73.175 97.1254 73.1796 97.0497 73.1887 96.9855C73.2025 96.9167 73.2185 96.8616 73.2369 96.8203C73.2552 96.7791 73.2782 96.7493 73.3057 96.7309C73.3378 96.7126 73.3722 96.7034 73.4089 96.7034H79.6008C79.6375 96.7034 79.6696 96.7126 79.6971 96.7309C79.7292 96.7493 79.7544 96.7791 79.7728 96.8203C79.7957 96.8616 79.8118 96.9167 79.8209 96.9855C79.8301 97.0497 79.8347 97.1254 79.8347 97.2125ZM82.3046 105.427C82.3046 105.464 82.2954 105.496 82.2771 105.523C82.2587 105.551 82.2266 105.574 82.1807 105.592C82.1349 105.606 82.073 105.617 81.995 105.627C81.9216 105.64 81.8276 105.647 81.7129 105.647C81.6028 105.647 81.5088 105.64 81.4308 105.627C81.3529 105.617 81.2909 105.606 81.2451 105.592C81.1992 105.574 81.1671 105.551 81.1488 105.523C81.1304 105.496 81.1212 105.464 81.1212 105.427V96.8823C81.1212 96.8456 81.1304 96.8135 81.1488 96.7859C81.1717 96.7584 81.2061 96.7378 81.252 96.724C81.3024 96.7057 81.3643 96.6919 81.4377 96.6827C81.5157 96.669 81.6074 96.6621 81.7129 96.6621C81.8276 96.6621 81.9216 96.669 81.995 96.6827C82.073 96.6919 82.1349 96.7057 82.1807 96.724C82.2266 96.7378 82.2587 96.7584 82.2771 96.7859C82.2954 96.8135 82.3046 96.8456 82.3046 96.8823V105.427ZM92.1291 101.051C92.1291 101.772 92.0442 102.421 91.8745 102.998C91.7048 103.576 91.4502 104.069 91.1108 104.478C90.776 104.881 90.354 105.193 89.8449 105.413C89.3358 105.629 88.7419 105.737 88.063 105.737C87.3934 105.737 86.8132 105.638 86.3224 105.441C85.8363 105.239 85.4326 104.948 85.1116 104.567C84.7951 104.186 84.5589 103.714 84.4029 103.15C84.247 102.586 84.169 101.937 84.169 101.203C84.169 100.501 84.2539 99.8635 84.4236 99.2902C84.5933 98.7169 84.8478 98.2307 85.1873 97.8317C85.5267 97.4281 85.9509 97.1185 86.46 96.9029C86.9691 96.6827 87.5631 96.5727 88.2419 96.5727C88.8978 96.5727 89.4688 96.6713 89.955 96.8685C90.4412 97.0657 90.8448 97.3547 91.1659 97.7354C91.4915 98.1115 91.7323 98.5793 91.8883 99.1389C92.0488 99.6938 92.1291 100.331 92.1291 101.051ZM90.8838 101.134C90.8838 100.63 90.8379 100.162 90.7462 99.7305C90.6591 99.2948 90.51 98.9187 90.299 98.6022C90.0926 98.2812 89.8151 98.0312 89.4665 97.8523C89.118 97.6735 88.6868 97.584 88.1731 97.584C87.6594 97.584 87.2283 97.6803 86.8797 97.873C86.5311 98.0656 86.2468 98.3225 86.0266 98.6435C85.811 98.9646 85.6551 99.3407 85.5588 99.7718C85.467 100.198 85.4212 100.648 85.4212 101.12C85.4212 101.643 85.4647 102.125 85.5519 102.565C85.639 103.005 85.7858 103.386 85.9922 103.707C86.1986 104.024 86.4738 104.271 86.8178 104.45C87.1664 104.624 87.6021 104.712 88.125 104.712C88.6432 104.712 89.079 104.615 89.4321 104.423C89.7853 104.23 90.0697 103.971 90.2852 103.645C90.5008 103.315 90.6545 102.934 90.7462 102.503C90.8379 102.072 90.8838 101.616 90.8838 101.134ZM100.729 105.117C100.729 105.209 100.713 105.287 100.681 105.351C100.653 105.416 100.614 105.468 100.564 105.51C100.518 105.551 100.465 105.581 100.406 105.599C100.346 105.617 100.286 105.627 100.227 105.627H99.8483C99.729 105.627 99.6235 105.615 99.5318 105.592C99.4447 105.565 99.3598 105.519 99.2772 105.455C99.1993 105.386 99.119 105.294 99.0365 105.179C98.9585 105.065 98.8713 104.918 98.775 104.739L95.968 99.6755C95.8213 99.4141 95.6722 99.1412 95.5208 98.8568C95.3741 98.5678 95.2365 98.2881 95.108 98.0174H95.0943C95.1035 98.3477 95.1103 98.6848 95.1149 99.0288C95.1195 99.3728 95.1218 99.7145 95.1218 100.054V105.427C95.1218 105.459 95.1126 105.491 95.0943 105.523C95.0759 105.551 95.0438 105.574 94.998 105.592C94.9567 105.606 94.8994 105.617 94.826 105.627C94.7572 105.64 94.6677 105.647 94.5576 105.647C94.4476 105.647 94.3558 105.64 94.2825 105.627C94.2137 105.617 94.1586 105.606 94.1173 105.592C94.0761 105.574 94.0462 105.551 94.0279 105.523C94.0096 105.491 94.0004 105.459 94.0004 105.427V97.2125C94.0004 97.029 94.0508 96.8983 94.1517 96.8203C94.2526 96.7424 94.3627 96.7034 94.482 96.7034H95.0461C95.1791 96.7034 95.2892 96.7149 95.3764 96.7378C95.4681 96.7607 95.5484 96.7997 95.6172 96.8547C95.6905 96.9052 95.7593 96.9786 95.8235 97.0749C95.8923 97.1666 95.9657 97.2836 96.0437 97.4258L98.204 101.334C98.337 101.572 98.4654 101.806 98.5893 102.035C98.7131 102.26 98.8324 102.482 98.947 102.703C99.0617 102.923 99.1741 103.141 99.2841 103.356C99.3988 103.567 99.5112 103.78 99.6212 103.996H99.6281C99.619 103.634 99.6121 103.258 99.6075 102.868C99.6075 102.473 99.6075 102.095 99.6075 101.733V96.9029C99.6075 96.8708 99.6167 96.841 99.635 96.8135C99.6533 96.7859 99.6832 96.763 99.7244 96.7447C99.7703 96.7217 99.8276 96.7057 99.8964 96.6965C99.9698 96.6873 100.064 96.6827 100.179 96.6827C100.279 96.6827 100.367 96.6873 100.44 96.6965C100.513 96.7057 100.571 96.7217 100.612 96.7447C100.653 96.763 100.683 96.7859 100.701 96.8135C100.72 96.841 100.729 96.8708 100.729 96.9029V105.117ZM107.877 103.109C107.877 103.526 107.799 103.897 107.643 104.223C107.492 104.549 107.279 104.826 107.003 105.056C106.733 105.28 106.412 105.45 106.04 105.565C105.673 105.679 105.277 105.737 104.85 105.737C104.552 105.737 104.274 105.711 104.017 105.661C103.765 105.611 103.538 105.549 103.336 105.475C103.139 105.402 102.972 105.326 102.834 105.248C102.701 105.17 102.607 105.104 102.552 105.049C102.502 104.994 102.463 104.925 102.435 104.842C102.412 104.755 102.401 104.64 102.401 104.498C102.401 104.397 102.405 104.315 102.414 104.251C102.424 104.182 102.437 104.127 102.456 104.086C102.474 104.044 102.497 104.017 102.525 104.003C102.552 103.985 102.584 103.975 102.621 103.975C102.685 103.975 102.775 104.014 102.889 104.092C103.008 104.17 103.16 104.255 103.343 104.347C103.527 104.439 103.747 104.526 104.004 104.608C104.265 104.686 104.566 104.725 104.905 104.725C105.162 104.725 105.396 104.691 105.607 104.622C105.822 104.553 106.006 104.457 106.157 104.333C106.313 104.205 106.432 104.049 106.515 103.865C106.597 103.682 106.639 103.473 106.639 103.239C106.639 102.987 106.581 102.771 106.467 102.593C106.352 102.414 106.201 102.258 106.013 102.125C105.825 101.987 105.609 101.863 105.366 101.753C105.127 101.639 104.882 101.524 104.63 101.409C104.378 101.29 104.132 101.159 103.894 101.017C103.655 100.875 103.442 100.707 103.254 100.515C103.066 100.322 102.912 100.097 102.793 99.8406C102.678 99.5792 102.621 99.2673 102.621 98.905C102.621 98.5334 102.687 98.2032 102.82 97.9142C102.958 97.6207 103.146 97.3753 103.385 97.1781C103.628 96.9809 103.914 96.8318 104.245 96.7309C104.579 96.6254 104.939 96.5727 105.325 96.5727C105.522 96.5727 105.719 96.591 105.916 96.6277C106.118 96.6598 106.306 96.7057 106.48 96.7653C106.659 96.8203 106.818 96.8846 106.955 96.9579C107.093 97.0267 107.182 97.0841 107.224 97.1299C107.269 97.1712 107.299 97.2056 107.313 97.2331C107.327 97.2561 107.338 97.2882 107.347 97.3295C107.357 97.3662 107.363 97.412 107.368 97.4671C107.373 97.5221 107.375 97.5932 107.375 97.6803C107.375 97.7629 107.37 97.8363 107.361 97.9005C107.357 97.9647 107.347 98.0197 107.334 98.0656C107.32 98.1069 107.299 98.139 107.272 98.1619C107.249 98.1803 107.221 98.1894 107.189 98.1894C107.139 98.1894 107.058 98.1573 106.948 98.0931C106.843 98.0289 106.712 97.9578 106.556 97.8798C106.4 97.7973 106.214 97.7239 105.999 97.6597C105.788 97.5909 105.549 97.5565 105.283 97.5565C105.036 97.5565 104.82 97.5909 104.637 97.6597C104.453 97.7239 104.302 97.811 104.183 97.9211C104.063 98.0312 103.974 98.1619 103.914 98.3133C103.855 98.4646 103.825 98.6252 103.825 98.7949C103.825 99.0425 103.882 99.2558 103.997 99.4347C104.112 99.6136 104.263 99.7718 104.451 99.9094C104.644 100.047 104.861 100.173 105.105 100.288C105.348 100.402 105.595 100.519 105.848 100.639C106.1 100.753 106.347 100.882 106.591 101.024C106.834 101.162 107.049 101.327 107.237 101.519C107.43 101.707 107.584 101.932 107.698 102.194C107.817 102.45 107.877 102.755 107.877 103.109Z" fill="#F0F5FA"/>
</svg>
